<?xml version="1.0" encoding="utf-8"?>
<!DOCTYPE svg PUBLIC "-//W3C//DTD SVG 1.1//EN" "http://www.w3.org/Graphics/SVG/1.1/DTD/svg11.dtd">
<svg version="1.1" xmlns="http://www.w3.org/2000/svg" xmlns:xlink="http://www.w3.org/1999/xlink" x="0px" y="0px" viewBox="0 0 256 256" enable-background="new 0 0 256 256" xml:space="preserve">
<metadata> Svg Vector Icons : http://www.onlinewebfonts.com/icon </metadata>
<g><g><path fill="#000000" d="M206.5,224.6c-4.6,1.5-9.2,2.8-13.7,3.8c-4.4,1-8.6,1.8-12.2,2.4c-3.6,0.6-6.7,1-8.8,1.3c-2.2,0.3-3.4,0.4-3.4,0.4l2.2,15.2c0,0,1.3-0.2,3.5-0.6c2.3-0.4,5.4-1,9.3-1.8s8.3-1.9,13-3.3c4.7-1.4,9.7-3.2,14.6-5.1c2.5-1.1,5-2.1,7.3-3.4c2.4-1.1,4.7-2.4,6.9-3.8c2.2-1.4,4.3-2.8,6.1-4.4c2-1.4,3.7-3.2,5.2-4.8c1.4-1.9,2.8-3.5,3.6-5.4c1-1.6,1.6-3.8,2-5.4c0.3-0.9,0.2-1.3,0.3-1.8c0-0.1,0-0.3,0-0.4l3.5,0.3c0,0-8.6-9.6-19.8-15.8c1.9,4.7,2.6,6.4,3.4,14.4l2.3,0.2c0,0.1,0,0.1,0,0.2c-0.1,0.4-0.1,1-0.3,1.1c-0.4,0.5-0.4,0.9-1,2c-0.5,1-1.4,1.9-2.3,3c-1.2,1-2.3,2.2-3.9,3.3c-1.5,1.1-3.3,2.2-5.1,3.2c-1.9,1-3.9,2-6.1,2.9C211,223,208.8,223.7,206.5,224.6z"/><path fill="#000000" d="M52,224.6l-4.6,12.1c0,0,1.3,0.4,3.4,1.3c2.2,0.8,5.3,2,9.1,3.1c1.9,0.5,3.9,1.3,6.1,1.8c2.2,0.5,4.5,1.1,6.8,1.7c2.4,0.5,4.9,1,7.4,1.5c2.5,0.6,5.1,1,7.7,1.4c2.6,0.4,5.1,0.9,7.6,1.1c2.6,0.3,5.1,0.5,7.5,0.8c4.8,0.5,9.5,0.7,13.4,1c1.9,0.2,3.6,0.2,5.2,0.2c0.6,0,1.2,0.1,1.8,0.1l-0.6,4.4l26.6-16.1l-23.6-6.5l-0.3,2.3c-1,0-2.2,0-3.6,0c-1.5-0.1-3.3,0-5.1-0.1c-3.7-0.2-7.9-0.2-12.5-0.6c-4.6-0.4-9.5-0.8-14.4-1.4c-2.4-0.2-4.9-0.5-7.3-0.9c-2.4-0.4-4.7-0.7-7-1.1c-2.2-0.4-4.4-0.9-6.5-1.3c-2.1-0.4-3.9-0.9-5.7-1.4c-3.6-0.8-6.4-1.7-8.4-2.3C53.1,224.9,52,224.6,52,224.6z"/><path fill="#000000" d="M84.4,167.7l-0.9,6.6c0.9-0.2,1.7-0.4,2.4-0.5c2.1-0.4,3.4-0.5,3.4-0.5l-0.9-6.2c0,0-1.3,0.2-3.5,0.5C84.8,167.6,84.7,167.7,84.4,167.7z"/><path fill="#000000" d="M199.6,172.7l-0.1,1.1c0,0.1,0.1,0.1,0.1,0.1c0.2,0.4,1.6,3.5,2.3,6c0.1,0.5,0.2,1.1,0.2,1.6c0.9,0.3,1.5,0.5,2.2,0.8c2,0.7,3.1,1.2,3.1,1.2l2.9-7.6c0,0-1.3-0.4-3.4-1C205.1,174.2,202.6,173.4,199.6,172.7z"/><path fill="#000000" d="M94.5,54.1c-3.4-3.3-8.2-6.2-13.1-5.3c0.1,0.1-0.4,0.4-1.2,0.9L80,51.2l-2.4,13.9c3.3-4,8.7-7.7,17.3-10.6C94.7,54.3,94.6,54.2,94.5,54.1z"/><path fill="#000000" d="M43.4,115.1c2.8,2.3,6.1,2,7.5,1.9c-0.1-0.7-0.1-1.7-0.2-3c-0.6-11.3-1.8-43.8-1.1-42.9c0.4,0.5,0.6,0.9,0.9,1.2l0,0l1.2,23.8c0.4,7.6,0.9,14.3,1.2,18.7c0.2,3.6,0.4,5.8,0.4,5.9l0.1,0.5c0.4,1.7,1.1,3.3,1.9,4.8l0.7,3.6l1.1,6.4l1.1,6.1l2.5,0.6l3.9,28.2l1,7.1c0,0,1.4-0.3,2.6-1.6c0.9-0.9,1.7-3.8,1.7-3.8l0.4-4.9l1-11.9l1.1,12.6l0.4,4.2c0,0,0.7,2.9,1.7,3.8c0.4,0.4,0.8,0.7,1.2,1c0.8,0.5,1.4,0.6,1.4,0.6l1-7.1l3.3-24.4c-2-1.5-3.5-3.6-4.1-6.1c0-0.1-0.1-0.3-0.1-0.4c-1.7-8.7-5.1-53-4.3-63.7c0.1-2.3,0.7-4.7,1.8-7.2l-1.1-12.4l0.5-2.3l-0.5-1.3L73.3,52l-2.5,0.1l-0.5,1.1l-0.6,1.4l0.5,1.9l-1.9,19.4L68.2,77l-5.1-25.1l-0.6-3.1c-0.3,0-0.5-0.1-0.8,0c-4.2,0.8-8.7,2.5-12.2,5.1c-4.2,3.1-7.3,7.5-7.5,13.5c-0.5,3.7,0.1,33.7,1.3,45.4C43.2,113.6,43.3,114.4,43.4,115.1z"/><path fill="#000000" d="M49.8,119.8l-5.8-1.5c0,0,0.5,8.3,3.1,8.6c1.5,0.2,2-0.9,2-2.6c0-1.7,0.8-1.6,0.8-0.4c0,1.1,1.6,4.2,1.5,1.9C51.1,123.4,50.8,119.9,49.8,119.8z"/><path fill="#000000" d="M57.4,48c3.8-1.6,4.8-2,4.8-2s-1.4-5.5-1.7-12.6c1.6,5.6,4.1,10.5,7.4,12.8c1.2,0.8,2.4,1.3,3.8,1.4c1.9,0.1,3.5-0.5,5-1.6c3.5-2.5,5.9-8,6.7-14.4c0.5,7.8-1,14.4-1,14.4s1,0.4,4.8,2c7.5,3.1,9-3.2,9-3.2s-7.8,1.7-5.7-10c1-5.6,1.2-11-2.8-19.8C84,6.9,76.5,6.2,71.8,6.6c-0.1,0-0.2-0.1-0.2-0.1c1-0.5,2-1,3.2-1.4c0,0-6.8-0.5-12.5,3.3c-1.1,0.8-2.2,1.7-3.1,2.8c-0.3,0.2-0.6,0.4-0.9,0.6c0,0,0.2,0,0.4-0.1c-0.7,1-1.4,1.9-1.9,3.2C52.7,23.7,53,29.2,54,34.8c2.2,11.7-5.7,10-5.7,10S49.9,51.1,57.4,48z"/><path fill="#000000" d="M75.2,182.2c0.3,1.3,0.8,3.3,1.2,3.6c0.6,0.5,4,1.6,3.4-0.5c-0.6-2.1-1.9-5-1.9-5s-1-0.4-2.2-1.7c-0.9-1-1.9-2.6-2.6-5.2c0,0-0.6,3.9,0.5,8.4c1.1,4.5,0.7,2.4,0.7,2.4l0.7-2.9C75,181.3,75.1,181.7,75.2,182.2z"/><path fill="#000000" d="M69.3,181.8c1.1-4.5,0.5-8.3,0.5-8.3c-1.6,5.7-4.8,6.9-4.8,6.9s-1.3,2.9-1.9,5c-0.6,2,2.8,0.9,3.4,0.5c0.6-0.4,1.4-4.5,1.4-4.5l0.7,2.9C68.6,184.2,68.2,186.3,69.3,181.8z"/><path fill="#000000" d="M179.5,47.9l-0.6-3.1c-0.3,0-0.5-0.1-0.8,0c-4.2,0.8-8.7,2.5-12.2,5.1c-1.1,0.8-2.1,1.7-3,2.7c7.9,2.8,15.3,7.3,20,11.9L179.5,47.9z"/><path fill="#000000" d="M197.9,44.7c0.1,0.1-0.4,0.4-1.2,0.9l-0.3,1.6L192,73.2l-1.8-20.5l0.5-2.3l-0.5-1.3l-0.5-1.2l-2.5,0l-0.5,1.1l-0.5,1.4l0.5,1.9l-1.5,14.5c1.1,1.4,1.8,2.7,2.2,4.1c0.1,0.3,0.2,0.6,0.3,1c1.3,6.7-2.9,49.6-5,64.4c-0.2,1.7-0.4,3.1-0.6,3.9c-0.5,2.4-1.8,4.6-3.7,6.1l2.8,20.5l1,7.2c0,0,1.4-0.4,2.6-1.6c0.9-1,1.7-3.8,1.7-3.8l0.4-4.9l1.1-11.9l1.1,12.5l0.4,4.3c0,0,0.7,2.8,1.7,3.8c0.4,0.4,0.8,0.7,1.2,0.9c0.7,0.4,1.4,0.6,1.4,0.6l0.9-7.2l3.9-28.3l1.6-0.4l1.1-6.7l1.5-9.3l0.1-0.8c1.8-1.5,1.8-2.2,2.3-4.1l0.1-0.4c0-0.1,0.2-3.5,0.6-8.8c0.1-2.2,0.4-4.7,0.5-7.4l1.6-31.4c0-0.1,0.1-0.2,0.1-0.2c0.3-0.6,0.6-1.2,1-1.8c0.9-1.4,0.4,28.7,0,39.6c-0.1,1.3-0.1,2.3-0.1,3c1.3,0.7,3.6,0,6.4-1.5c0.1-0.8,0.2-1.7,0.3-2.8c1.4-12.1,3.1-42.3,0.8-48.4c-0.3-1.1-2.3-4.3-5.2-7.1C207.4,46.7,202.7,43.8,197.9,44.7z"/><path fill="#000000" d="M209,116.9c0-1.1,0.8-1.3,0.8,0.4c0,1.7,0.5,2.7,2,2.6c2.5-0.3,3-8.6,3-8.6l-5.8,1.5c-1,0.2-1.3,3.6-1.5,6C207.4,121.1,209,118,209,116.9z"/><path fill="#000000" d="M173.8,43.9c3.8-1.6,4.8-2,4.8-2s-1.4-5.5-1.7-12.6c1.5,5.6,4,10.5,7.4,12.8c1.1,0.8,2.4,1.3,3.8,1.4c1.8,0.1,3.5-0.5,5-1.6c3.5-2.5,5.9-8,6.7-14.4c0.4,7.8-1,14.4-1,14.4s1,0.4,4.8,2c7.5,3.1,9-3.2,9-3.2s-7.8,1.7-5.7-10c1-5.6,1.2-11-2.8-19.8c-3.6-8.1-11.2-8.8-15.8-8.4c-0.1,0-0.2-0.1-0.2-0.1c0.9-0.5,2-1,3.1-1.4c0,0-6.7-0.5-12.3,3.3c-1.1,0.8-2.2,1.7-3.2,2.8c-0.2,0.2-0.5,0.4-0.8,0.5c0,0,0.2,0,0.5,0c-0.8,0.9-1.4,1.9-2,3.2c-4.1,8.7-3.8,14.2-2.8,19.8c2.1,11.7-5.7,10-5.7,10S166.3,47.1,173.8,43.9z"/><path fill="#000000" d="M191.6,178.2c0.3,1.3,0.8,3.3,1.2,3.6c0.7,0.4,4.1,1.6,3.5-0.5c-0.6-2.1-1.9-5-1.9-5s-1-0.4-2.2-1.7c-1-1-2-2.6-2.6-5.1c0,0-0.6,3.8,0.5,8.3c1.1,4.4,0.7,2.3,0.7,2.3l0.7-2.9C191.4,177.2,191.5,177.7,191.6,178.2z"/><path fill="#000000" d="M185.8,177.8c1.1-4.5,0.5-8.3,0.5-8.3c-1.6,5.7-4.9,6.8-4.9,6.8s-1.4,3-1.9,5c-0.5,2.1,2.8,0.9,3.4,0.5c0.6-0.4,1.5-4.6,1.5-4.6l0.7,2.9C185.1,180.1,184.7,182.2,185.8,177.8z"/><path fill="#000000" d="M163.5,153.3c0.5-0.7,1-1.7,1.1-2.4c0-0.1,0.1-0.2,0.1-0.2c0-1.2,1-1.4,1.2,0.1c0,0.1,0.1,0.2,0.1,0.4c0,2.1,0.8,3.3,3.3,3.1c1.8-0.2,2.9-2.2,3.7-4.4c0.1-0.3,0.2-0.6,0.3-0.9c0.7-2.5,0.9-5.1,0.9-5.1l-9.3,1.8c-1.8,0.2-2.2,4.3-2.5,7.2C162.2,154.4,162.8,154.1,163.5,153.3z"/><path fill="#000000" d="M93.9,151.3c0-0.3,0.1-0.4,0.1-0.6c0.3-1.3,1.1-1.1,1.1,0.1c0,0.1,0.1,0.2,0.1,0.2c0,0.3,0.1,0.5,0.2,0.9c0.7,1.5,2.3,3.5,2.1,1.2c-0.3-3-0.8-7.1-2.5-7.3l-9.4-1.7c0,0,0.2,2.5,1,5.1c0.1,0.2,0.2,0.5,0.3,0.7c0.7,2.3,1.9,4.4,3.8,4.5C93.1,154.7,93.9,153.4,93.9,151.3z"/><path fill="#000000" d="M96.9,142.5c-0.8-7.9-3.3-59.2-2-58c0.6,0.5,1,1,1.6,1.5l0,0l1.9,28.8c1.3,16.8,2.6,29.5,2.6,29.7l0.1,0.6c0.7,2,1.8,3.9,3.1,5.8l4.8,64l13.3-0.2l6-50c0.4,0.1,0.7,0.1,1.1,0.1c0.5,0,1-0.1,1.6-0.2l6.4,50.2H150l4.8-63.1c1.5-2.2,2.6-4.4,3.3-6.7l0.1-0.5c0-0.2,0.9-8.1,1.8-19.6l2.6-37.9c0.1-0.1,0.1-0.2,0.2-0.3c0.5-0.8,1.1-1.6,1.6-2.2c1.7-1.9,0.6,49.9-0.2,57.7c2.1,0.9,5.9,0,10.3-1.7c2.3-11.4,7-63.9,6.1-68.8c-0.9-3-19.2-16.4-34-14.3c0.1,0-0.7,0.5-2,1.1L137,91.7L134.1,67l0.8-2.7l-1.7-3.1l-4,0.1l-1.8,3.1l0.9,2.3L125.1,90l-0.2,1.3l-9.3-34.2c-0.4,0-0.9-0.1-1.3,0c-14.9,2.1-33.5,7.3-34,17.6c-0.9,4.8,2.1,53.9,4.4,65.2C89.2,142.9,94.7,142.5,96.9,142.5z"/><path fill="#000000" d="M110,23.7c-1,0-1.8,3.3-1.8,7.3s0.8,7.3,1.8,7.3c0.4,0,0.9-0.7,1.1-1.8c3.2,12.3,13.8,21.4,19.7,21.4c7.4,0,17.6-8.5,19-22.2c0.3,1.4,0.8,2.3,1.3,2.3c0.9,0,1.7-3.2,1.7-7.3s-0.8-7.3-1.7-7.3c-0.2,0-0.4,0.2-0.5,0.4c0.1-1.9,0.1-3.8-0.2-6.2c-3.3,2.7-9.6-0.9-16.5-4.2c0.9,0.4,1.7,0.7,2.5,1.1c11.3,5.8,15.8-5.5,15.8-5.5S138.4-6.3,116,5.3c-2,1-4.7,3.7-7.1,4.8c0,0,1.9-0.2,4.8-0.2c-2.4,1.6-3.8,4.7-3.1,10.3c-0.2,1-0.3,2.3-0.4,3.6C110.1,23.8,110.1,23.7,110,23.7z"/><path fill="#000000" d="M109.3,217c0,0-0.7,0.4-1.6,1c-3.1,2.2-9.1,6.8-2.5,7.3c5,0.4,8.1-1.6,11.1-3.7c1.5-1.2,1,0.1,1.5,0.1c0.5-0.1,2.2-0.1,2.5-0.3c0.4-1.6,0.5-2.6,0.5-3.3s-0.1-0.9-0.1-0.9l0.2-0.3L109.3,217L109.3,217z"/><path fill="#000000" d="M139,221.5c0.3,0.2,1.9,0.2,2.5,0.3c0.5,0,0-1.3,1.5-0.1c2.9,2.1,6,4.1,11,3.7c6.7-0.5,0.6-5.2-2.5-7.4c-0.9-0.6-1.5-1-1.5-1h-11.6l0.2,0.3c0,0-0.1,0.3-0.1,1.1C138.5,219.1,138.6,220,139,221.5z"/><path fill="#000000" d="M34.9,221.5c-2.5-5.6-3.5-7.5-4.9-17.3l-3.5-0.2c0-0.1,0-0.2,0-0.3c0.1-0.4,0.1-1,0.2-1.1c0.3-0.5,0.2-1,0.8-2.2c0.4-1,1.3-2.1,2.2-3.3c1.1-1.1,2.3-2.4,3.8-3.6c1.4-1.3,3.2-2.5,5-3.7c1.9-1.1,3.9-2.3,6-3.4c2.1-1.1,4.4-2,6.6-3c2.4-1.1,4.9-1.9,7.4-2.8c0.5-1.5,1.1-2.6,1.2-2.8c0.1-0.1,0.1-0.1,0.1-0.1l-0.7-5.1c-3.6,0.9-7.2,1.9-10.9,3.2c-2.4,1-4.9,1.7-7.3,2.8c-2.4,1-4.7,2.2-6.9,3.3c-2.2,1.3-4.4,2.4-6.3,4c-1.9,1.3-3.7,3.1-5.3,4.6c-1.5,1.7-2.8,3.2-3.8,5c-1,1.5-1.7,3.7-2.2,5.3c-0.3,0.9-0.3,1.2-0.4,1.7c-0.1,0.4-0.1,0.7-0.2,1l-5.9-0.2C10.1,203.3,21,214.5,34.9,221.5z"/><path fill="#000000" d="M176,171.7l-0.5-3.6c-1.9-0.3-3.7-0.6-5.5-0.8c-0.1,0-0.2,0-0.3,0l-0.9-0.5l-0.1,0.4c-2.1-0.2-4.2-0.4-6.2-0.6l-0.4,5.3c2,0.3,4,0.6,6,1l-0.1,1.4c0,0,0.9-0.3,3-0.9c1.7,0.3,3.3,0.5,5,0.9c0.1-0.2,0.2-0.4,0.2-0.5c0,0,0.1-0.1,0.1-0.1l-0.2-1.5c0.2,0,0.4-0.1,0.6-0.1L176,171.7z"/></g></g>
</svg>